# xmcd
#
# Track frame offsets: 
#        150
#        17475
#        30450
#        46725
#        61500
#        80550
#        90450
#        108975
#        124350
#        137925
#        154875
#        166875
#        186450
#        200475
#
# Disc length: 2820 seconds
#
# Revision: 0
# Processed by: cddbd v1.5.2PL0 Copyright (c) Steve Scherf et al.
# Submitted via: ExactAudioCopy v0.99pb5
#
DISCID=b20b020e
DTITLE=Toad - Rarities
DYEAR=1992
DGENRE=Rock
TTITLE0=Rockin' and Lovin
TTITLE1=Slow Down
TTITLE2=Behind The Wheels
TTITLE3=I Ain't Got Time
TTITLE4=Everybody's Baby
TTITLE5=Makin' Groupies Happy
TTITLE6=Tonight
TTITLE7=Baby You
TTITLE8=Makin' You Feel Right
TTITLE9=Music
TTITLE10=I Got Enough Of You
TTITLE11=Purple Haze
TTITLE12=Usin' My Life
TTITLE13=Gimme Little Money
EXTD=
EXTT0=
EXTT1=
EXTT2=
EXTT3=
EXTT4=
EXTT5=
EXTT6=
EXTT7=
EXTT8=
EXTT9=
EXTT10=
EXTT11=
EXTT12=
EXTT13=
PLAYORDER=
